<?xml version="1.0" encoding="UTF-8"?>
<svg width="2512px" height="1452px" viewBox="0 0 2512 1452" version="1.1" xmlns="http://www.w3.org/2000/svg" xmlns:xlink="http://www.w3.org/1999/xlink">
    <!-- Generator: Sketch 62 (91390) - https://sketch.com -->
    <title>water</title>
    <desc>Created with Sketch.</desc>
    <defs>
        <rect id="path-1" x="1331" y="79" width="1124" height="1248" rx="12"></rect>
        <filter x="-3.1%" y="-3.0%" width="107.2%" height="106.5%" filterUnits="objectBoundingBox" id="filter-2">
            <feMorphology radius="0.5" operator="dilate" in="SourceAlpha" result="shadowSpreadOuter1"></feMorphology>
            <feOffset dx="6" dy="3" in="shadowSpreadOuter1" result="shadowOffsetOuter1"></feOffset>
            <feGaussianBlur stdDeviation="12" in="shadowOffsetOuter1" result="shadowBlurOuter1"></feGaussianBlur>
            <feComposite in="shadowBlurOuter1" in2="SourceAlpha" operator="out" result="shadowBlurOuter1"></feComposite>
            <feColorMatrix values="0 0 0 0 0   0 0 0 0 0   0 0 0 0 0  0 0 0 0.5 0" type="matrix" in="shadowBlurOuter1"></feColorMatrix>
        </filter>
        <rect id="path-3" x="37" y="79" width="692" height="1248" rx="12"></rect>
        <filter x="-5.0%" y="-3.0%" width="111.7%" height="106.5%" filterUnits="objectBoundingBox" id="filter-4">
            <feMorphology radius="0.5" operator="dilate" in="SourceAlpha" result="shadowSpreadOuter1"></feMorphology>
            <feOffset dx="6" dy="3" in="shadowSpreadOuter1" result="shadowOffsetOuter1"></feOffset>
            <feGaussianBlur stdDeviation="12" in="shadowOffsetOuter1" result="shadowBlurOuter1"></feGaussianBlur>
            <feComposite in="shadowBlurOuter1" in2="SourceAlpha" operator="out" result="shadowBlurOuter1"></feComposite>
            <feColorMatrix values="0 0 0 0 0   0 0 0 0 0   0 0 0 0 0  0 0 0 0.5 0" type="matrix" in="shadowBlurOuter1"></feColorMatrix>
        </filter>
    </defs>
    <g id="Page-1" stroke="none" stroke-width="1" fill="none" fill-rule="evenodd">
        <g id="water" transform="translate(1.000000, 1.000000)">
            <rect id="Rectangle" stroke="#979797" fill="#FFFFFF" x="0" y="0" width="2510" height="1450"></rect>
            <g id="Rectangle">
                <use fill="black" fill-opacity="1" filter="url(#filter-2)" xlink:href="#path-1"></use>
                <use fill="#FFFFFF" fill-rule="evenodd" xlink:href="#path-1"></use>
            </g>
            <g id="Rectangle">
                <use fill="black" fill-opacity="1" filter="url(#filter-4)" xlink:href="#path-3"></use>
                <use fill="#FFFFFF" fill-rule="evenodd" xlink:href="#path-3"></use>
            </g>
            <g id="Group-7" transform="translate(1602.000000, 837.000000)" fill="#000000">
                <g id="network" transform="translate(65.000000, 0.000000)" fill-rule="nonzero">
                    <path d="M56,211.912734 C56,209.655473 54.1786413,207.825468 51.9320458,207.825468 C27.7825,207.825468 8.13590841,188.099777 8.13590841,163.854115 C8.13590841,146.654355 18.2152141,130.93582 33.8133778,123.809263 C35.8587451,122.875186 36.7629158,120.45171 35.8327102,118.396632 C34.9030471,116.341555 32.4904791,115.433092 30.4456541,116.367714 C11.9505647,124.818 0,143.457023 0,163.854115 C0,192.607214 23.2963601,216 51.9320458,216 C54.1786413,216 56,214.169995 56,211.912734 L56,211.912734 Z" id="Path"></path>
                    <path d="M85.4535215,126.61563 C91.3743982,93.5370997 120.112606,69.5288333 153.786154,69.5288333 C179.536548,69.5288333 203.044848,83.6638761 215.13627,106.418408 C216.201196,108.421425 218.686935,109.18221 220.689761,108.11744 C222.69204,107.05267 223.452545,104.565467 222.388167,102.561903 C220.088585,98.2343573 217.419427,94.1856017 214.431613,90.4463086 L214.431613,35.6878747 L224.365808,23.8461409 C225.709421,24.3500444 227.163085,24.6255482 228.68081,24.6255482 C235.473885,24.6255482 241,19.102327 241,12.3127741 C241,5.52322128 235.473337,0 228.68081,0 C221.888282,0 216.361619,5.52322128 216.361619,12.3127741 C216.361619,14.5945809 216.985791,16.7334325 218.072618,18.5672033 L207.179716,31.5514837 C206.559376,32.2914551 206.218819,33.2264153 206.218819,34.1920479 L206.218819,81.6586685 C199.009081,75.0553409 190.620534,69.8810181 181.497763,66.402988 L181.497763,37.730875 C186.277609,36.0367732 189.710556,31.4720641 189.710556,26.121375 C189.710556,19.3318222 184.184441,13.8086009 177.391366,13.8086009 C170.598291,13.8086009 165.072175,19.3318222 165.072175,26.121375 C165.072175,31.4720641 168.505123,36.0367732 173.284969,37.730875 L173.284969,63.7859758 C167.005467,62.1630777 160.463156,61.3130143 153.786154,61.3130143 C150.386605,61.3130143 147.031406,61.5321028 143.736433,61.9576822 L143.736433,23.9222741 C148.516279,22.2281723 151.949226,17.6634632 151.949226,12.3127741 C151.949226,5.52322128 146.423111,0 139.630036,0 C132.836961,0 127.310845,5.52322128 127.310845,12.3127741 C127.310845,17.6634632 130.743793,22.2281723 135.523639,23.9222741 L135.523639,63.4704884 C124.634022,66.0891437 114.588133,71.0038467 105.975103,77.7216481 L105.975103,37.730875 C110.754949,36.0367732 114.187896,31.4720641 114.187896,26.121375 C114.187896,19.3318222 108.661781,13.8086009 101.868706,13.8086009 C95.0756305,13.8086009 89.5495155,19.3318222 89.5495155,26.121375 C89.5495155,31.4720641 92.9824632,36.0367732 97.7623091,37.730875 L97.7623091,85.1251964 C88.8125541,94.4309808 82.1382905,106.020763 78.7091754,119.083915 C76.7912143,117.935891 74.8119311,116.918225 72.7806335,116.033108 L72.7806335,34.1925957 C72.7806335,33.2264153 72.4400763,32.2914551 71.8197366,31.5520314 L60.9273822,18.567751 C62.0142085,16.7334325 62.6383809,14.5945809 62.6383809,12.3127741 C62.6383809,5.52322128 57.1122658,0 50.3191904,0 C43.5261151,0 38,5.52322128 38,12.3127741 C38,19.102327 43.5261151,24.6255482 50.3191904,24.6255482 C51.8363672,24.6255482 53.2905792,24.3500444 54.6336447,23.8461409 L64.5678398,35.6878747 L64.5678398,113.250684 C60.4680133,112.236852 56.2209039,111.719803 51.8872865,111.719803 C49.6194604,111.719803 47.7808897,113.559051 47.7808897,115.827712 C47.7808897,118.096374 49.6194604,119.935622 51.8872865,119.935622 C61.7650871,119.935622 71.1057711,123.119525 78.9002597,129.142816 C79.6301033,129.706969 80.51599,130 81.4111845,130 C81.9088798,130 82.4093127,129.909626 82.8878448,129.725044 C84.2276252,129.207995 85.20002,128.029299 85.4535215,126.61563 L85.4535215,126.61563 Z M228.68081,8.21581903 C230.945351,8.21581903 232.787206,10.0534239 232.787206,12.3127741 C232.787206,14.5721244 230.945351,16.4097292 228.68081,16.4097292 C226.416269,16.4097292 224.574413,14.5721244 224.574413,12.3127741 C224.574413,10.0534239 226.416269,8.21581903 228.68081,8.21581903 Z M177.391366,22.0238722 C179.655907,22.0238722 181.497763,23.8620248 181.497763,26.1208273 C181.497763,28.3796298 179.655907,30.2177824 177.391366,30.2177824 C175.126825,30.2177824 173.284969,28.3801775 173.284969,26.1208273 C173.284969,23.8614771 175.126825,22.0238722 177.391366,22.0238722 L177.391366,22.0238722 Z M139.630036,8.21581903 C141.894577,8.21581903 143.736433,10.0534239 143.736433,12.3127741 C143.736433,14.5721244 141.894577,16.4097292 139.630036,16.4097292 C137.365495,16.4097292 135.523639,14.5721244 135.523639,12.3127741 C135.523639,10.0534239 137.365495,8.21581903 139.630036,8.21581903 Z M101.868706,22.0238722 C104.133247,22.0238722 105.975103,23.8620248 105.975103,26.1208273 C105.975103,28.3796298 104.133247,30.2177824 101.868706,30.2177824 C99.6041649,30.2177824 97.7623091,28.3801775 97.7623091,26.1208273 C97.7623091,23.8614771 99.6041649,22.0238722 101.868706,22.0238722 L101.868706,22.0238722 Z M46.2127936,12.3127741 C46.2127936,10.0534239 48.0546495,8.21581903 50.3191904,8.21581903 C52.5837314,8.21581903 54.4255872,10.0534239 54.4255872,12.3127741 C54.4255872,14.5721244 52.5837314,16.4097292 50.3191904,16.4097292 C48.0546495,16.4097292 46.2127936,14.5715766 46.2127936,12.3127741 Z" id="Shape"></path>
                    <path d="M240.756643,137.104099 C237.782015,137.104099 234.852482,137.434706 231.995753,138.090455 C231.961524,132.383252 231.305748,126.697362 230.047439,121.182512 C229.54379,118.975917 227.356963,117.598297 225.16416,118.104863 C222.970813,118.611429 221.600583,120.810375 222.104232,123.016424 C223.260941,128.083724 223.847174,133.316055 223.847174,138.566419 C223.847174,140.168087 223.790669,141.800902 223.679291,143.418962 C223.582581,144.824451 224.210649,146.181852 225.342366,147.012467 C226.474083,147.843629 227.950802,148.030518 229.252032,147.509744 C232.910145,146.044691 236.780693,145.301509 240.7561,145.301509 C257.90191,145.301509 271.850334,159.320331 271.850334,176.552323 C271.850334,193.784315 257.901367,207.803137 240.7561,207.803137 L227.392822,207.803137 C225.142427,207.803137 223.317989,209.638141 223.317989,211.901568 C223.317989,214.164996 225.142427,216 227.392822,216 L240.7561,216 C262.395636,216 280,198.304065 280,176.552323 C280,154.80058 262.395636,137.104099 240.756643,137.104099 L240.756643,137.104099 Z" id="Path"></path>
                    <path d="M193.917498,208 L156.082502,208 C153.827872,208 152,209.836408 152,212.101567 C152,214.366726 153.827872,216.203134 156.082502,216.203134 L173.203427,216.203134 L173.203427,256.114662 C168.451395,257.806148 165.038423,262.363809 165.038423,267.706237 C165.038423,274.485307 170.532382,280 177.285929,280 C184.039476,280 189.533435,274.485307 189.533435,267.706237 C189.533435,262.363262 186.120463,257.805601 181.368431,256.114662 L181.368431,216.203134 L193.917498,216.203134 C196.172128,216.203134 198,214.366726 198,212.101567 C198,209.836408 196.172128,208 193.917498,208 L193.917498,208 Z M177.285929,271.796866 C175.034565,271.796866 173.203427,269.962098 173.203427,267.706237 C173.203427,265.450375 175.034565,263.615607 177.285929,263.615607 C179.537293,263.615607 181.368431,265.450922 181.368431,267.706237 C181.368431,269.961552 179.537293,271.796866 177.285929,271.796866 Z" id="Shape"></path>
                    <path d="M123.858045,208 L86.141955,208 C83.8544913,208 82,209.836408 82,212.101567 C82,214.366726 83.8544913,216.203134 86.141955,216.203134 L98.2165822,216.203134 L98.2165822,256.114662 C93.3953466,257.806148 89.9326722,262.363809 89.9326722,267.706237 C89.9326722,274.485307 95.5066391,280 102.358537,280 C109.210435,280 114.784402,274.485307 114.784402,267.706237 C114.784402,262.363262 111.321728,257.805601 106.500492,256.114662 L106.500492,216.203134 L123.858045,216.203134 C126.145509,216.203134 128,214.366726 128,212.101567 C128,209.836408 126.145509,208 123.858045,208 L123.858045,208 Z M102.358537,271.796866 C100.074387,271.796866 98.2165822,269.962098 98.2165822,267.706237 C98.2165822,265.450375 100.074387,263.615607 102.358537,263.615607 C104.642687,263.615607 106.500492,265.450922 106.500492,267.706237 C106.500492,269.961552 104.642687,271.796866 102.358537,271.796866 Z" id="Shape"></path>
                    <path d="M69.6033446,173 C62.7675534,173 57.2066893,178.494892 57.2066893,185.249621 C57.2066893,190.572865 60.6612239,195.114162 65.4711262,196.799574 L65.4711262,252.658498 L47.9670488,273.28614 C46.4998357,275.015145 46.7279342,277.592579 48.4761381,279.04368 C49.2502404,279.686131 50.1929371,280 51.1301243,280 C52.3091839,280 53.4805301,279.503585 54.2976075,278.540181 L72.768624,256.772583 C73.3928644,256.036407 73.7355631,255.106243 73.7355631,254.145563 L73.7355631,196.799029 C78.5454654,195.113617 82,190.572321 82,185.249076 C82,178.494892 76.4391359,173 69.6033446,173 Z M69.6033446,189.325562 C67.3245639,189.325562 65.4711262,187.497382 65.4711262,185.249621 C65.4711262,183.001859 67.3245639,181.173679 69.6033446,181.173679 C71.8821254,181.173679 73.7355631,183.002404 73.7355631,185.249621 C73.7355631,187.496837 71.8821254,189.325562 69.6033446,189.325562 Z" id="Shape"></path>
                    <path d="M140.5,173 C133.607222,173 128,178.494864 128,185.249558 C128,190.572776 131.483333,195.114049 136.333333,196.799453 L136.333333,275.913181 C136.333333,278.170195 138.198889,280 140.5,280 C142.801111,280 144.666667,278.170195 144.666667,275.913181 L144.666667,196.799453 C149.516667,195.114049 153,190.572776 153,185.249558 C153,178.494864 147.392778,173 140.5,173 L140.5,173 Z M140.5,189.325479 C138.202222,189.325479 136.333333,187.497309 136.333333,185.249558 C136.333333,183.001808 138.202222,181.173638 140.5,181.173638 C142.797778,181.173638 144.666667,183.002353 144.666667,185.249558 C144.666667,187.496764 142.797778,189.325479 140.5,189.325479 Z" id="Shape"></path>
                    <path d="M214.528981,252.658092 L214.528981,196.799453 C219.338915,195.114049 222.793472,190.572776 222.793472,185.249558 C222.793472,178.494864 217.232571,173 210.396736,173 C203.5609,173 198,178.494864 198,185.249558 C198,190.572776 201.454557,195.114049 206.264491,196.799453 L206.264491,254.145694 C206.264491,255.106914 206.607191,256.037074 207.231436,256.772702 L225.702572,278.540188 C226.520206,279.503588 227.691009,280 228.870076,280 C229.807269,280 230.749972,279.686132 231.52408,279.043684 C233.272295,277.592591 233.499844,275.014626 232.033172,273.286174 L214.528981,252.658092 Z M210.396736,181.173638 C212.675531,181.173638 214.528981,183.002353 214.528981,185.249558 C214.528981,187.496764 212.675531,189.325479 210.396736,189.325479 C208.11794,189.325479 206.264491,187.497309 206.264491,185.249558 C206.264491,183.001808 208.11794,181.173638 210.396736,181.173638 Z" id="Shape"></path>
                </g>
                <text id="Cloud-Native-Env" font-family="PingFangSC-Semibold, PingFang SC" font-size="24" font-weight="500">
                    <tspan x="107.352" y="331">Cloud Native Env</tspan>
                </text>
                <text id="Dev-Online。云原生的本地开发环" font-family="PingFangSC-Semibold, PingFang SC" font-size="24" font-weight="500">
                    <tspan x="0" y="390">Dev Online</tspan>
                    <tspan x="123.816" y="390" font-family="PingFangSC-Regular, PingFang SC" font-weight="normal">。云原生的本地开发环</tspan>
                    <tspan x="0" y="423" font-family="PingFangSC-Regular, PingFang SC" font-weight="normal">境，即开发即部署</tspan>
                    <tspan x="0" y="456">Prod Readly</tspan>
                    <tspan x="138.768" y="456" font-family="PingFangSC-Regular, PingFang SC" font-weight="normal">。随时可部署 + 上线</tspan>
                </text>
            </g>
            <g id="ide" transform="translate(178.000000, 265.000000)" fill="#000000">
                <g id="web-programming" transform="translate(38.000000, 0.000000)" fill-rule="nonzero">
                    <path d="M105.628595,172 C104.629213,172 103.622519,171.649508 102.801076,170.936094 L74.5356357,146.391679 C73.5606291,145.544034 73,144.306124 73,142.998614 C73,141.693588 73.5630665,140.455679 74.5356357,139.608034 L102.801076,115.063618 C104.636526,113.467759 107.393357,113.693963 108.958243,115.565742 C110.520691,117.440007 110.301314,120.251404 108.463427,121.844777 L84.1053249,142.998614 L108.463427,164.152449 C110.301314,165.748309 110.520691,168.559705 108.958243,170.431485 C108.092924,171.468047 106.864416,172 105.628595,172 Z" id="Path"></path>
                    <path d="M162.370329,172 C161.134467,172 159.905919,171.468047 159.043009,170.431485 C157.478072,168.559705 157.699893,165.748309 159.535404,164.152449 L183.894309,142.998614 L159.535404,121.844777 C157.699893,120.251404 157.478072,117.440007 159.043009,115.565742 C160.605508,113.693963 163.364869,113.467759 165.197941,115.063618 L193.464314,139.608034 C194.439352,140.455679 195,141.693588 195,142.998614 C195,144.306124 194.439352,145.544034 193.464314,146.391679 L165.197941,170.936094 C164.376471,171.649508 163.369744,172 162.370329,172 L162.370329,172 Z" id="Path"></path>
                    <path d="M123.482242,190 C123.175074,190 122.865408,189.967756 122.553246,189.903266 C120.135857,189.397274 118.58753,187.038459 119.09698,184.637477 L137.144982,99.5291297 C137.654431,97.1281481 140.026869,95.5903293 142.446754,96.0963213 C144.864143,96.6023133 146.41247,98.9586488 145.90302,101.362111 L127.855018,186.470458 C127.410498,188.563876 125.552505,190 123.482242,190 L123.482242,190 Z" id="Path"></path>
                    <path d="M238.292453,236 L29.7075472,236 C13.3279042,236 0,222.699956 0,206.349059 L0,29.6509408 C0,13.3025085 13.3279042,0 29.7075472,0 L238.292453,0 C254.672096,0 268,13.3025085 268,29.6509408 L268,206.349059 C268,222.699956 254.672096,236 238.292453,236 Z M29.7075472,8.83219513 C18.2067368,8.83219513 8.8490566,18.1720446 8.8490566,29.6509408 L8.8490566,206.349059 C8.8490566,217.827955 18.2067368,227.167805 29.7075472,227.167805 L238.292453,227.167805 C249.793263,227.167805 259.150943,217.827955 259.150943,206.349059 L259.150943,29.6509408 C259.150943,18.1720446 249.793263,8.83219513 238.292453,8.83219513 L29.7075472,8.83219513 Z" id="Shape"></path>
                    <path d="M263.575472,71 L4.4245283,71 C1.98017362,71 0,68.9860488 0,66.5 C0,64.0164616 1.98017362,62 4.4245283,62 L263.575472,62 C266.019826,62 268,64.0164616 268,66.5 C268,68.9860488 266.019826,71 263.575472,71 Z" id="Path"></path>
                    <path d="M76,50 C68.2828424,50 62,43.7171577 62,36 C62,28.2803738 68.2828424,22 76,22 C83.7196261,22 90,28.2803738 90,36 C90,43.7171577 83.7196261,50 76,50 Z M75.9999997,30.8478222 C73.1609945,30.8478222 70.8478224,33.1585257 70.8478224,36 C70.8478224,38.8414743 73.1609945,41.1521778 75.9999997,41.1521778 C78.841474,41.1521778 81.1521776,38.8414743 81.1521776,36 C81.1521776,33.1585257 78.841474,30.8478222 75.9999997,30.8478222 Z" id="Shape"></path>
                    <path d="M33,50 C25.2803739,50 19,43.7196261 19,36 C19,28.2803739 25.2803739,22 33,22 C40.7196261,22 47,28.2803739 47,36 C47,43.7196261 40.7196261,50 33,50 Z M32.9999997,30.8478224 C30.1609945,30.8478224 27.8478224,33.1609945 27.8478224,35.9999997 C27.8478224,38.841474 30.1609945,41.1521776 32.9999997,41.1521776 C35.841474,41.1521776 38.1521776,38.841474 38.1521776,35.9999997 C38.1521776,33.1609945 35.841474,30.8478224 32.9999997,30.8478224 Z" id="Shape"></path>
                    <path d="M118.998765,50 C111.280928,50 105,43.7190725 105,35.9987656 C105,28.2809275 111.280928,22 118.998765,22 C126.719072,22 133,28.2809275 133,35.9987656 C133,43.7190725 126.719072,50 118.998765,50 Z M118.998765,30.8461335 C116.15951,30.8461335 113.848602,33.1570408 113.848602,35.9987656 C113.848602,38.8404904 116.15951,41.1513977 118.998765,41.1513977 C121.84049,41.1513977 124.151398,38.8404904 124.151398,35.9987656 C124.151398,33.1570408 121.84049,30.8461335 118.998765,30.8461335 Z" id="Shape"></path>
                </g>
                <text id="呈现。接收通用-AST，以编程语言的方式" font-family="PingFangSC-Semibold, PingFang SC" font-size="24" font-weight="500">
                    <tspan x="0" y="387">呈现。</tspan>
                    <tspan x="72" y="387" font-family="PingFangSC-Regular, PingFang SC" font-weight="normal">接收通用 AST，以编程语言的</tspan>
                    <tspan x="0" y="420" font-family="PingFangSC-Regular, PingFang SC" font-weight="normal">方式重现代码</tspan>
                    <tspan x="0" y="453">编辑</tspan>
                    <tspan x="48" y="453" font-family="PingFangSC-Regular, PingFang SC" font-weight="normal">。与人类进行交互</tspan>
                    <tspan x="0" y="486">语言无关</tspan>
                    <tspan x="96" y="486" font-family="PingFangSC-Regular, PingFang SC" font-weight="normal">。以任意语言展示和编辑</tspan>
                </text>
            </g>
            <g id="db" transform="translate(2163.000000, 493.000000)" fill="#000000">
                <g id="database-storage" fill-rule="nonzero">
                    <path d="M164.492,70.8393333 C162.856396,66.1101749 158.404011,62.9366664 153.4,62.9333333 L149.466667,62.9333333 L149.466667,55.0666667 L153.4,55.0666667 C159.908891,55.0472273 165.180561,49.7755577 165.2,43.2666667 L165.2,11.8 C165.180561,5.29110899 159.908891,0.0194393266 153.4,0 L11.8,0 C5.29110899,0.0194393266 0.0194393266,5.29110899 0,11.8 L0,43.2666667 C0.0194393266,49.7755577 5.29110899,55.0472273 11.8,55.0666667 L15.7333333,55.0666667 L15.7333333,62.9333333 L11.8,62.9333333 C5.29110899,62.9527727 0.0194393266,68.2244423 0,74.7333333 L0,106.2 C0.0194393266,112.708891 5.29110899,117.980561 11.8,118 L15.7333333,118 L15.7333333,125.866667 L11.8,125.866667 C5.29110899,125.886106 0.0194393266,131.157776 0,137.666667 L0,169.133333 C0.0194393266,175.642224 5.29110899,180.913894 11.8,180.933333 L86.5333333,180.933333 L86.5333333,212.4 C86.5333333,227.897333 124.136,236 161.266667,236 C198.397333,236 236,227.897333 236,212.4 L236,94.4 C236,79.3353333 200.560667,71.3113333 164.492,70.8393333 Z M11.8,47.2 C9.62767998,47.2 7.86666667,45.4389867 7.86666667,43.2666667 L7.86666667,11.8 C7.86666667,9.62767998 9.62767998,7.86666667 11.8,7.86666667 L153.4,7.86666667 C155.57232,7.86666667 157.333333,9.62767998 157.333333,11.8 L157.333333,43.2666667 C157.333333,45.4389867 155.57232,47.2 153.4,47.2 L11.8,47.2 Z M141.6,55.0666667 L141.6,62.9333333 L125.866667,62.9333333 L125.866667,55.0666667 L141.6,55.0666667 Z M118,55.0666667 L118,62.9333333 L47.2,62.9333333 L47.2,55.0666667 L118,55.0666667 Z M39.3333333,55.0666667 L39.3333333,62.9333333 L23.6,62.9333333 L23.6,55.0666667 L39.3333333,55.0666667 Z M86.5333333,173.066667 L11.8,173.066667 C9.62767998,173.066667 7.86666667,171.305653 7.86666667,169.133333 L7.86666667,137.666667 C7.86666667,135.494347 9.62767998,133.733333 11.8,133.733333 L86.5333333,133.733333 L86.5333333,173.066667 Z M23.6,125.866667 L23.6,118 L39.3333333,118 L39.3333333,125.866667 L23.6,125.866667 Z M86.5333333,125.866667 L47.2,125.866667 L47.2,118 L86.5333333,118 L86.5333333,125.866667 Z M86.5333333,94.4 L86.5333333,110.133333 L11.8,110.133333 C9.62767998,110.133333 7.86666667,108.37232 7.86666667,106.2 L7.86666667,74.7333333 C7.86666667,72.5610133 9.62767998,70.8 11.8,70.8 L153.4,70.8 C153.587106,70.8204083 153.771627,70.8599485 153.950667,70.918 C119.337333,71.9013333 86.5333333,79.9253333 86.5333333,94.4 Z M228.133333,212.4 C228.133333,217.749333 204.533333,228.133333 161.266667,228.133333 C118,228.133333 94.4,217.749333 94.4,212.4 L94.4,184.158667 C107.340667,192.379333 134.362667,196.666667 161.266667,196.666667 C188.170667,196.666667 215.192667,192.379333 228.133333,184.158667 L228.133333,212.4 Z M228.133333,173.066667 C228.133333,178.416 204.533333,188.8 161.266667,188.8 C118,188.8 94.4,178.416 94.4,173.066667 L94.4,144.825333 C107.340667,153.046 134.362667,157.333333 161.266667,157.333333 C188.170667,157.333333 215.192667,153.046 228.133333,144.825333 L228.133333,173.066667 Z M228.133333,133.733333 C228.133333,139.082667 204.533333,149.466667 161.266667,149.466667 C118,149.466667 94.4,139.082667 94.4,133.733333 L94.4,105.492 C107.340667,113.712667 134.362667,118 161.266667,118 C188.170667,118 215.192667,113.712667 228.133333,105.492 L228.133333,133.733333 Z M161.266667,110.133333 C118,110.133333 94.4,99.7493333 94.4,94.4 C94.4,89.0506667 118,78.6666667 161.266667,78.6666667 C204.533333,78.6666667 228.133333,89.0506667 228.133333,94.4 C228.133333,99.7493333 204.533333,110.133333 161.266667,110.133333 Z" id="Shape"></path>
                    <polygon id="Path" points="157 130 165 130 165 138 157 138"></polygon>
                    <polygon id="Path" points="157 173 165 173 165 181 157 181"></polygon>
                    <polygon id="Path" points="157 208 165 208 165 216 157 216"></polygon>
                    <path d="M36,78 L20,78 C17.790861,78 16,79.790861 16,82 L16,98 C16,100.209139 17.790861,102 20,102 L36,102 C38.209139,102 40,100.209139 40,98 L40,82 C40,79.790861 38.209139,78 36,78 Z M32,94 L24,94 L24,86 L32,86 L32,94 Z" id="Shape"></path>
                    <path d="M67,78 L51,78 C48.790861,78 47,79.790861 47,82 L47,98 C47,100.209139 48.790861,102 51,102 L67,102 C69.209139,102 71,100.209139 71,98 L71,82 C71,79.790861 69.209139,78 67,78 Z M63,94 L55,94 L55,86 L63,86 L63,94 Z" id="Shape"></path>
                    <path d="M36,16 L20,16 C17.790861,16 16,17.790861 16,20 L16,36 C16,38.209139 17.790861,40 20,40 L36,40 C38.209139,40 40,38.209139 40,36 L40,20 C40,17.790861 38.209139,16 36,16 Z M32,32 L24,32 L24,24 L32,24 L32,32 Z" id="Shape"></path>
                    <path d="M67,16 L51,16 C48.790861,16 47,17.790861 47,20 L47,36 C47,38.209139 48.790861,40 51,40 L67,40 C69.209139,40 71,38.209139 71,36 L71,20 C71,17.790861 69.209139,16 67,16 Z M63,32 L55,32 L55,24 L63,24 L63,32 Z" id="Shape"></path>
                    <polygon id="Path" points="79 16 134 16 134 24 79 24"></polygon>
                    <polygon id="Path" points="142 16 150 16 150 24 142 24"></polygon>
                    <polygon id="Path" points="79 31 134 31 134 39 79 39"></polygon>
                    <polygon id="Path" points="142 31 150 31 150 39 142 39"></polygon>
                    <path d="M36,141 L20,141 C17.790861,141 16,142.790861 16,145 L16,161 C16,163.209139 17.790861,165 20,165 L36,165 C38.209139,165 40,163.209139 40,161 L40,145 C40,142.790861 38.209139,141 36,141 Z M32,157 L24,157 L24,149 L32,149 L32,157 Z" id="Shape"></path>
                    <path d="M67,141 L51,141 C48.790861,141 47,142.790861 47,145 L47,161 C47,163.209139 48.790861,165 51,165 L67,165 C69.209139,165 71,163.209139 71,161 L71,145 C71,142.790861 69.209139,141 67,141 Z M63,157 L55,157 L55,149 L63,149 L63,157 Z" id="Shape"></path>
                </g>
                <text id="Languages-DB" font-family="PingFangSC-Semibold, PingFang SC" font-size="24" font-weight="500">
                    <tspan x="34.744" y="302">Languages DB</tspan>
                </text>
                <text id="TBD" font-family="PingFangSC-Semibold, PingFang SC" font-size="24" font-weight="500">
                    <tspan x="92.5" y="351">TBD</tspan>
                </text>
            </g>
            <g id="arch-engine" transform="translate(1563.000000, 217.000000)" fill="#000000">
                <g id="Group">
                    <g id="nodes" transform="translate(72.000000, 0.000000)" fill-rule="nonzero">
                        <path d="M222.171875,142.362391 L222.171875,93.6376094 C230.064969,91.9390547 236,84.9088359 236,76.515625 C236,62.6497031 220.616211,54.3708047 209.075258,61.7536406 L174.246359,26.9247422 C181.6315,15.3796406 173.346148,0 159.484375,0 C142.404336,0 135.397164,22.1392891 149.54518,31.9272969 L133.940602,69.7255547 L107.378617,43.1635703 L134.968031,31.69775 C136.848656,30.916 137.739648,28.7578906 136.957898,26.8772656 C136.176148,24.9966406 134.0185,24.1056484 132.137414,24.8873984 L101.736281,37.5216953 L91.2241406,27.0086328 C98.6857969,15.4879609 90.4410078,0 76.515625,0 C62.6497031,0 54.3708047,15.3837891 61.7536406,26.9247422 L26.9252031,61.7536406 C15.3796406,54.3685 0,62.6538516 0,76.515625 C0,87.4315469 9.91707031,95.7132109 20.6804219,93.7394766 L30.7625078,118 L20.6799609,142.260523 C9.93504688,140.290477 0,148.551859 0,159.484375 C0,173.350297 15.3837891,181.629195 26.9247422,174.246359 L61.7536406,209.074797 C54.3680391,220.619898 62.6538516,236 76.515625,236 C84.9088359,236 91.9385938,230.064969 93.6371484,222.171875 L142.362391,222.171875 C144.060945,230.064969 151.091164,236 159.483914,236 C169.141937,236 176.999539,228.142398 176.999539,218.484375 C176.999539,208.826352 169.141937,200.96875 159.483914,200.96875 C151.090703,200.96875 144.060945,206.903781 142.362391,214.796875 L94.9982969,214.796875 L204.097133,169.457219 C213.95382,183.634273 236,176.427977 236,159.484375 C236,151.091164 230.064969,144.061406 222.171875,142.362391 L222.171875,142.362391 Z M201.253609,79.6398594 L191.04707,83.85375 L169.928758,33.0372344 L203.83025,66.9382656 C201.443516,70.5778281 200.425766,75.0682813 201.253609,79.6398594 Z M204.073164,86.4548203 C206.566375,90.0584297 210.373258,92.6853125 214.796875,93.6376094 L214.796875,141.002625 L193.877227,90.6645625 L204.073164,86.4548203 Z M207.942273,143.727227 L166.274445,102.059398 L187.059961,93.4785859 L207.942273,143.727227 Z M228.625,76.515625 C228.625,82.1072578 224.076008,86.65625 218.484375,86.65625 C212.892742,86.65625 208.34375,82.1072578 208.34375,76.515625 C208.34375,70.9239922 212.892742,66.375 218.484375,66.375 C224.076008,66.375 228.625,70.9239922 228.625,76.515625 Z M159.484375,7.375 C165.076008,7.375 169.625,11.9239922 169.625,17.515625 C169.625,23.1072578 165.076008,27.65625 159.484375,27.65625 C153.892742,27.65625 149.34375,23.1072578 149.34375,17.515625 C149.34375,11.9239922 153.892742,7.375 159.484375,7.375 Z M156.360141,34.7463906 C158.453258,35.1252813 160.523328,35.1289688 162.649172,34.7390156 L184.229805,86.6677734 L160.6275,96.4119922 L139.588008,75.3720391 L156.360141,34.7463906 Z M153.244664,99.4601719 L124.794219,111.205781 L136.539828,82.7553359 L153.244664,99.4601719 Z M73.3512891,34.7394766 C77.8154688,35.5576406 82.2994688,34.6260859 86.0086328,32.2241406 L94.3681953,40.5837031 L66.0279141,52.3615781 L73.3512891,34.7394766 Z M56.3735781,56.3735781 L33.0376953,66.0717031 L66.0717031,33.0372344 L56.3735781,56.3735781 Z M76.515625,7.375 C82.1072578,7.375 86.65625,11.9239922 86.65625,17.515625 C86.65625,23.1072578 82.1072578,27.65625 76.515625,27.65625 C70.9239922,27.65625 66.375,23.1072578 66.375,17.515625 C66.375,11.9239922 70.9239922,7.375 76.515625,7.375 Z M7.375,76.515625 C7.375,70.9239922 11.9239922,66.375 17.515625,66.375 C23.1072578,66.375 27.65625,70.9239922 27.65625,76.515625 C27.65625,82.1072578 23.1072578,86.65625 17.515625,86.65625 C11.9239922,86.65625 7.375,82.1072578 7.375,76.515625 Z M27.4884688,90.9028672 C33.0962344,87.0037969 35.9978359,80.2132656 34.7394766,73.3508281 L52.3615781,66.0274531 L34.7560703,108.390836 L27.4884688,90.9028672 Z M34.7560703,127.609164 L42.1232344,145.335898 L31.9272969,149.54518 C30.7265547,147.80975 29.2211328,146.301562 27.4884688,145.097133 L34.7560703,127.609164 Z M34.7463906,156.35968 L44.9529297,152.14625 L66.0717031,202.962766 L32.16975,169.061734 C34.5514141,165.429547 35.5756172,160.940937 34.7463906,156.35968 L34.7463906,156.35968 Z M7.375,159.484375 C7.375,153.892742 11.9239922,149.34375 17.515625,149.34375 C23.1072578,149.34375 27.65625,153.892742 27.65625,159.484375 C27.65625,165.076008 23.1072578,169.625 17.515625,169.625 C11.9239922,169.625 7.375,165.076008 7.375,159.484375 Z M76.515625,228.625 C70.9239922,228.625 66.375,224.076008 66.375,218.484375 C66.375,212.892742 70.9239922,208.34375 76.515625,208.34375 C82.1072578,208.34375 86.65625,212.892742 86.65625,218.484375 C86.65625,224.076008 82.1072578,228.625 76.515625,228.625 Z M159.484375,208.34375 C165.076008,208.34375 169.625,212.892742 169.625,218.484375 C169.625,224.076008 165.076008,228.625 159.484375,228.625 C153.892742,228.625 149.34375,224.076008 149.34375,218.484375 C149.34375,212.892742 153.892742,208.34375 159.484375,208.34375 Z M90.9033281,208.511992 C87.0116328,202.914367 80.2275547,200.000781 73.3512891,201.260523 L51.7701953,149.331766 L66.1408438,143.399039 C68.0233125,142.621898 68.919375,140.466094 68.1422344,138.583625 C67.3650938,136.700695 65.2088281,135.805555 63.3268203,136.582234 L48.9405,142.521414 L38.7491719,118 L62.0154531,62.0154531 L100.01007,46.2255781 L130.892422,77.1079297 L115.175836,115.176297 L90.1049844,125.526648 C88.2225156,126.303789 87.3264531,128.459594 88.1035938,130.342063 C88.8844219,132.234211 91.0457578,133.116906 92.9190078,132.343453 L111.204859,124.794219 L84.8982344,188.51468 C83.8938516,190.946586 85.6928906,193.610344 88.3054844,193.610344 C89.7542109,193.610344 91.1282656,192.751156 91.7150391,191.329164 L120.822781,120.823703 L158.891148,105.107117 L203.774938,149.990906 C201.375758,153.695461 200.440055,158.179461 201.259602,162.648711 L90.9033281,208.511992 Z M218.484375,169.625 C212.892742,169.625 208.34375,165.076008 208.34375,159.484375 C208.34375,153.892742 212.892742,149.34375 218.484375,149.34375 C224.076008,149.34375 228.625,153.892742 228.625,159.484375 C228.625,165.076008 224.076008,169.625 218.484375,169.625 Z" id="Shape"></path>
                        <path d="M77.2042495,131.261096 C75.3012654,132.043271 74.5584148,134.113223 75.2595371,135.832003 C75.9889129,137.6184 78.020994,138.468192 79.7957505,137.738801 C81.6987346,136.956626 82.4415852,134.886674 81.7404629,133.167894 C81.0123911,131.384987 78.9816141,130.530832 77.2042495,131.261096 Z" id="Path"></path>
                    </g>
                    <text id="操作系统无关。脱离操作系统的文件和文件夹" font-family="PingFangSC-Semibold, PingFang SC" font-size="24" font-weight="500">
                        <tspan x="0" y="386">操作系统无关</tspan>
                        <tspan x="144" y="386" font-family="PingFangSC-Regular, PingFang SC" font-weight="normal">。脱离操作系统的文件和</tspan>
                        <tspan x="0" y="419" font-family="PingFangSC-Regular, PingFang SC" font-weight="normal">文件夹进行架构规划</tspan>
                        <tspan x="0" y="452">自动化架构</tspan>
                        <tspan x="120" y="452" font-family="PingFangSC-Regular, PingFang SC" font-weight="normal">。自动按说语义规划架构</tspan>
                        <tspan x="0" y="485">类图数据库（TBC）</tspan>
                        <tspan x="216.888" y="485" font-family="PingFangSC-Regular, PingFang SC" font-weight="normal">。</tspan>
                    </text>
                </g>
                <text id="Architecture-Engine" font-family="PingFangSC-Semibold, PingFang SC" font-size="24" font-weight="500">
                    <tspan x="84.936" y="304">Architecture Engine</tspan>
                </text>
            </g>
            <g id="Group-4" transform="translate(946.500000, 436.000000)" fill="#000000">
                <g id="binary-code" fill-rule="nonzero">
                    <path d="M259.82397,231.359247 L243.807165,231.359247 C241.098524,220.639873 236.878698,210.433219 231.223272,200.921436 L242.504615,189.613057 C243.475833,188.640031 244.020978,187.319829 244.02046,185.943581 C244.019942,184.567333 243.47428,183.247132 242.503062,182.274625 L209.762783,149.480793 C207.741139,147.455861 204.465092,147.457418 202.443966,149.48235 L191.175047,160.778274 C181.686004,155.109295 171.504787,150.880394 160.810523,148.164743 L160.810523,132.188434 C160.810523,129.322808 158.492751,127 155.634493,127 L109.350493,127 C106.492236,127 104.174463,129.322808 104.174463,132.188434 L104.174463,148.164743 C93.4807171,150.879875 83.2989826,155.109295 73.8099394,160.778274 L62.5410212,149.48235 C60.5204126,147.456899 57.2443656,147.455861 55.2222038,149.480793 L22.4824423,182.274625 C21.5107071,183.247651 20.9655621,184.567333 20.9650444,185.943581 C20.9645267,187.319829 21.5101894,188.640031 22.4808892,189.613057 L33.7622324,200.921436 C28.1068061,210.433219 23.8874978,220.638835 21.1783395,231.359247 L5.18845531,231.359247 C2.33071521,231.359247 0.013978445,233.680498 0.0124253254,236.545086 L0,259.808971 C0,261.185219 0.544627648,262.50594 1.5148097,263.479485 C2.48602717,264.45303 3.8025549,265 5.17551265,265 L79.0962409,265 C81.9544987,265 84.2722709,262.677192 84.2722709,259.811566 C84.2722709,233.158956 105.904121,211.475265 132.493011,211.475265 C159.081901,211.475265 180.713751,233.158956 180.713751,259.811566 C180.713751,262.677192 183.031524,265 185.889781,265 L259.82397,265 C262.682228,265 265,262.677192 265,259.811566 L265,236.547162 C265,233.682055 262.682746,231.359247 259.82397,231.359247 Z M254.648975,254.62365 L254.648975,254.62365 L190.839574,254.62365 C188.210142,224.671055 163.04598,201.098916 132.493011,201.098916 C101.940042,201.098916 76.7763979,224.671055 74.1464487,254.62365 L10.3551666,254.62365 L10.3618968,241.736115 L25.2847878,241.736115 C27.724221,241.736115 29.8328397,240.02826 30.3453692,237.637989 C32.9944736,225.277186 37.8153569,213.615923 44.6734154,202.978543 C45.9977087,200.925069 45.7119347,198.22291 43.9864188,196.493778 L33.4645511,185.946176 L58.8813537,160.487145 L69.3939027,171.024887 C71.1189009,172.754538 73.8140811,173.040478 75.8631636,171.714049 C86.4751122,164.839555 98.1084959,160.007638 110.439748,157.351666 C112.824822,156.837908 114.528077,154.724755 114.528077,152.278957 L114.528077,137.376868 L150.460017,137.376868 L150.460017,152.278957 C150.460017,154.724236 152.163271,156.837908 154.548345,157.351666 C166.879597,160.007638 178.512981,164.839555 189.12493,171.714049 C191.17453,173.040997 193.869192,172.755057 195.59419,171.024887 L206.106739,160.487145 L231.52406,185.946176 L221.002192,196.493259 C219.277194,198.222391 218.990902,200.924031 220.315195,202.978024 C227.173254,213.615404 231.99362,225.276667 234.643242,237.63747 C235.155771,240.02826 237.263872,241.735596 239.703823,241.735596 L254.648975,241.735596 L254.648975,254.62365 L254.648975,254.62365 Z" id="Shape"></path>
                    <path d="M55,0 C51.6867373,0 49,2.367639 49,5.28857343 L49,49.7114266 C49,52.632361 51.6867373,55 55,55 C58.3132627,55 61,52.632361 61,49.7114266 L61,5.28857343 C60.9993999,2.367639 58.3126625,0 55,0 Z" id="Path"></path>
                    <path d="M134,0 C130.686737,0 128,2.367639 128,5.28857343 L128,49.7114266 C128,52.632361 130.686737,55 134,55 C137.313263,55 140,52.632361 140,49.7114266 L140,5.28857343 C140,2.367639 137.313263,0 134,0 Z" id="Path"></path>
                    <path d="M16.5,0 C7.40199165,0 0,8.06615886 0,17.9810439 L0,37.0194851 C0,46.9338411 7.40199165,55 16.5,55 C25.5980084,55 33,46.9338411 33,37.0194851 L33,17.9810439 C33.0004854,8.06615886 25.5984938,0 16.5,0 Z M23.2942604,37.0194851 C23.2942604,41.1020226 20.2463815,44.4233821 16.5,44.4233821 C12.7536185,44.4233821 9.70573959,41.1020226 9.70573959,37.0194851 L9.70573959,17.9810439 C9.70573959,13.8985064 12.7536185,10.5771469 16.5,10.5771469 C20.2463815,10.5771469 23.2942604,13.8985064 23.2942604,17.9810439 L23.2942604,37.0194851 L23.2942604,37.0194851 Z" id="Shape"></path>
                    <path d="M94.5,0 C85.4015062,0 78,8.06623644 78,17.9806879 L78,37.0193121 C78,46.9337636 85.4019916,55 94.5,55 C103.598494,55 111,46.9337636 111,37.0193121 L111,17.9812168 C111.000485,8.06623644 103.598494,0 94.5,0 Z M101.29426,37.0198411 C101.29426,41.1024179 98.2463815,44.4238093 94.5,44.4238093 C90.7536185,44.4238093 87.7057396,41.1024179 87.7057396,37.0198411 L87.7057396,17.9812168 C87.7057396,13.8986401 90.7536185,10.5772486 94.5,10.5772486 C98.2463815,10.5772486 101.29426,13.8986401 101.29426,17.9812168 L101.29426,37.0198411 L101.29426,37.0198411 Z" id="Shape"></path>
                    <path d="M185,58 C181.686737,58 179,60.367639 179,63.2885734 L179,107.711427 C179,110.632361 181.686737,113 185,113 C188.313263,113 191,110.632361 191,107.711427 L191,63.2885734 C191,60.367639 188.313263,58 185,58 Z" id="Path"></path>
                    <path d="M259,58 C255.686737,58 253,60.367639 253,63.2885734 L253,107.711427 C253,110.632361 255.686737,113 259,113 C262.313263,113 265,110.632361 265,107.711427 L265,63.2885734 C265,60.367639 262.313863,58 259,58 Z" id="Path"></path>
                    <path d="M160,58 C156.686737,58 154,60.367639 154,63.2885734 L154,107.711427 C154,110.632361 156.686737,113 160,113 C163.313263,113 166,110.632361 166,107.711427 L166,63.2885734 C166,60.367639 163.313263,58 160,58 Z" id="Path"></path>
                    <path d="M119.5,58 C110.401506,58 103,66.0667654 103,75.9806879 L103,95.0193121 C103,104.934293 110.401992,113 119.5,113 C128.598008,113 136,104.933764 136,95.0193121 L136,75.9806879 C136.000485,66.0662364 128.598494,58 119.5,58 Z M126.29426,95.0193121 C126.29426,99.1018889 123.246382,102.42328 119.5,102.42328 C115.753618,102.42328 112.70574,99.1018889 112.70574,95.0193121 L112.70574,75.9806879 C112.70574,71.8981111 115.753618,68.5767196 119.5,68.5767196 C123.246382,68.5767196 126.29426,71.8981111 126.29426,75.9806879 L126.29426,95.0193121 Z" id="Shape"></path>
                    <path d="M223.5,58 C214.401506,58 207,66.0662364 207,75.9806879 L207,95.0193121 C207,104.934293 214.401992,113 223.5,113 C232.598008,113 240,104.933764 240,95.0193121 L240,75.9806879 C240,66.0662364 232.598494,58 223.5,58 Z M230.29426,95.0193121 C230.29426,99.1018889 227.246382,102.42328 223.5,102.42328 C219.753618,102.42328 216.70574,99.1018889 216.70574,95.0193121 L216.70574,75.9806879 C216.70574,71.8981111 219.753618,68.5767196 223.5,68.5767196 C227.246382,68.5767196 230.29426,71.8981111 230.29426,75.9806879 L230.29426,95.0193121 Z" id="Shape"></path>
                    <path d="M207.637593,230.996823 C198.447906,207.945917 178.625836,190.079134 154.612288,183.202999 C151.87075,182.417184 148.998811,183.982154 148.205018,186.699208 C147.411224,189.416262 148.992602,192.25626 151.737244,193.042075 C172.692048,199.042749 189.990952,214.637636 198.012717,234.757362 C198.815825,236.771076 200.764086,238 202.826708,238 C203.458534,238 204.10071,237.88474 204.724257,237.640902 C207.382482,236.602541 208.68598,233.627817 207.637593,230.996823 Z" id="Path"></path>
                    <path d="M134.064598,179.0006 C134.034822,179 134.005047,179.0006 133.975868,179.0006 C133.968126,179.0006 133.961576,179.0006 133.953834,179.0006 L133.953834,179 C130.666065,179 128,181.686137 128,185 C128,188.313863 130.666065,191 133.953834,191 C133.97825,191 134.002665,191 134.027676,190.9994 L134.027676,191 C134.034227,191 134.040182,191 134.046733,191 C137.326165,191 139.989252,188.325865 140,185.018604 C140.010095,181.705341 137.352962,179.010802 134.064598,179.0006 Z" id="Path"></path>
                </g>
                <text id="binary-AST" font-family="PingFangSC-Semibold, PingFang SC" font-size="24" font-weight="500">
                    <tspan x="70.504" y="307">binary AST</tspan>
                </text>
            </g>
            <g id="Group-5" transform="translate(646.000000, 459.000000)" fill="#000000">
                <path id="Line" d="M28.3062262,30.7467052 L31.1368377,36.0370396 L28.4916705,37.4523454 L10.265,47.204 L26.7405702,47.552931 L237.563277,52.0006674 L240.56261,52.0639445 L240.436056,58.0626097 L237.436723,57.9993326 L26.6140161,53.5515962 L10.136,53.203 L27.9375629,63.7170478 L30.5206855,65.242655 L27.469471,70.4089003 L24.8863484,68.883293 L-2.77521793,52.546211 L-7.36743594,49.8340203 L-2.66491646,47.3179212 L25.661059,32.1620109 L28.3062262,30.7467052 Z" fill-rule="nonzero"></path>
                <text id="representation" font-family="PingFangSC-Semibold, PingFang SC" font-size="24" font-weight="500">
                    <tspan x="57.592" y="25">representation</tspan>
                </text>
                <text id="collaboration" font-family="PingFangSC-Semibold, PingFang SC" font-size="24" font-weight="500">
                    <tspan x="45.016" y="176">collaboration</tspan>
                </text>
            </g>
            <path id="Line" d="M856.106057,573.16449 L858.720784,574.635273 L886.720784,590.385273 L891.369187,593 L886.720784,595.614727 L858.720784,611.364727 L856.106057,612.83551 L853.16449,607.606057 L855.779216,606.135273 L873.797,596 L643.5,596 L643.5,590 L873.798,590 L855.779216,579.864727 L853.16449,578.393943 L856.106057,573.16449 Z" fill="#000000" fill-rule="nonzero"></path>
            <g id="Group-6" transform="translate(1281.000000, 492.000000)" fill="#000000">
                <path id="Line" d="M210.106057,57.1644897 L212.720784,58.6352734 L240.720784,74.3852734 L245.369187,77 L240.720784,79.6147266 L212.720784,95.3647266 L210.106057,96.8355103 L207.16449,91.6060571 L209.779216,90.1352734 L227.797,80 L10.202,80 L28.2207837,90.1352734 L30.8355103,91.6060571 L27.8939429,96.8355103 L25.2792163,95.3647266 L-2.72078372,79.6147266 L-7.36918658,77 L-2.72078372,74.3852734 L25.2792163,58.6352734 L27.8939429,57.1644897 L30.8355103,62.3939429 L28.2207837,63.8647266 L10.201,74 L227.798,74 L209.779216,63.8647266 L207.16449,62.3939429 L210.106057,57.1644897 Z" fill-rule="nonzero"></path>
                <text id="storage" font-family="PingFangSC-Semibold, PingFang SC" font-size="24" font-weight="500">
                    <tspan x="78.276" y="25">storage</tspan>
                </text>
            </g>
            <text id="Editor/IDE" font-family="PingFangSC-Semibold, PingFang SC" font-size="24" font-weight="500" fill="#000000">
                <tspan x="290.312" y="569">Editor/IDE</tspan>
            </text>
            <path id="Line" d="M1535.60606,1050.16449 L1538.22078,1051.63527 L1566.22078,1067.38527 L1570.86919,1070 L1566.22078,1072.61473 L1538.22078,1088.36473 L1535.60606,1089.83551 L1532.66449,1084.60606 L1535.27922,1083.13527 L1553.297,1073 L680.702,1073 L698.720784,1083.13527 L701.33551,1084.60606 L698.393943,1089.83551 L695.779216,1088.36473 L667.779216,1072.61473 L663.130813,1070 L667.779216,1067.38527 L695.779216,1051.63527 L698.393943,1050.16449 L701.33551,1055.39394 L698.720784,1056.86473 L680.701,1067 L1553.298,1067 L1535.27922,1056.86473 L1532.66449,1055.39394 L1535.60606,1050.16449 Z" fill="#000000" fill-rule="nonzero"></path>
            <g id="Group-2" transform="translate(253.000000, 917.000000)" fill="#000000">
                <text id="Browsers" font-family="PingFangSC-Semibold, PingFang SC" font-size="24" font-weight="500">
                    <tspan x="68.816" y="339">Browsers</tspan>
                </text>
                <g id="browser" fill-rule="nonzero">
                    <path d="M251.75,0 L13.25,0 C5.93222706,0 0,5.93216431 0,13.2498598 L0,189.914658 C0,197.232353 5.93222706,203.164518 13.25,203.164518 L42.0113333,203.164518 C56.5532737,240.450938 92.4778234,265 132.5,265 C172.522177,265 208.446726,240.450938 222.988667,203.164518 L251.75,203.164518 C259.067773,203.164518 265,197.232353 265,189.914658 L265,13.2498598 C265,5.93216431 259.067773,0 251.75,0 Z M13.25,8.83323989 L251.75,8.83323989 C254.189257,8.83323989 256.166667,10.810628 256.166667,13.2498598 L256.166667,35.3329596 L8.83333333,35.3329596 L8.83333333,13.2498598 C8.83333333,10.810628 10.8107424,8.83323989 13.25,8.83323989 Z M79.61925,172.248178 C79.8566167,185.26165 81.6115933,198.202985 84.8485833,210.809687 C75.9668522,212.032967 67.1519306,213.70012 58.4369167,215.804884 C49.9808157,202.785824 45.1339524,187.754611 44.3919167,172.248178 L79.61925,172.248178 Z M136.916667,128.020146 C148.647333,127.878814 160.143917,127.203071 171.198833,125.979667 C174.486522,138.196519 176.283917,150.766288 176.551833,163.414938 L136.916667,163.414938 L136.916667,128.020146 Z M136.916667,119.186906 L136.916667,79.9629041 C149.782417,82.6570423 161.208333,96.9801408 168.456083,117.380508 C158.266833,118.44933 147.702167,119.054407 136.916667,119.186906 L136.916667,119.186906 Z M128.083333,79.9629041 L128.083333,119.186906 C117.297833,119.054407 106.733167,118.44933 96.5439167,117.380508 C103.791667,96.9801408 115.217583,82.6570423 128.083333,79.9629041 L128.083333,79.9629041 Z M128.083333,128.020146 L128.083333,163.414938 L88.4481667,163.414938 C88.716083,150.766288 90.5134782,138.196519 93.8011667,125.979667 C104.856083,127.198654 116.352667,127.878814 128.083333,128.020146 Z M88.4481667,172.248178 L128.083333,172.248178 L128.083333,207.64297 C116.352667,207.784302 104.856083,208.460045 93.8011667,209.683449 C90.5134782,197.466597 88.716083,184.896828 88.4481667,172.248178 Z M128.083333,216.47621 L128.083333,255.722295 C115.217583,253.028157 103.791667,238.705058 96.5439167,218.304691 C106.733167,217.213786 117.297833,216.608709 128.083333,216.47621 L128.083333,216.47621 Z M136.916667,255.722295 L136.916667,216.47621 C147.702167,216.608709 158.266833,217.213786 168.456083,218.282608 C161.208333,238.682975 149.782417,253.006074 136.916667,255.722295 Z M136.916667,207.665053 L136.916667,172.248178 L176.551833,172.248178 C176.283917,184.896828 174.486522,197.466597 171.198833,209.683449 C160.143917,208.464461 148.647333,207.784302 136.916667,207.64297 L136.916667,207.665053 Z M185.38075,172.248178 L220.608083,172.248178 C219.866048,187.754611 215.019184,202.785824 206.563083,215.804884 C197.848069,213.70012 189.033148,212.032967 180.151417,210.809687 C183.388407,198.202985 185.143383,185.26165 185.38075,172.248178 Z M185.38075,163.414938 C185.143383,150.401466 183.388407,137.460131 180.151417,124.853429 C189.033148,123.630149 197.848069,121.962996 206.563083,119.858232 C215.019184,132.877292 219.866048,147.908505 220.608083,163.414938 L185.38075,163.414938 Z M177.598583,116.285187 C173.89281,104.229072 167.643992,93.108132 159.273833,83.6728649 C175.631462,88.9116881 190.11373,98.7919951 200.958333,112.111481 C193.533917,113.79863 185.712,115.189865 177.598583,116.285187 Z M87.4014167,116.285187 C79.288,115.189865 71.4660833,113.79863 64.03725,112.111481 C74.8830419,98.7912924 89.3669332,88.9109249 105.726167,83.6728649 C97.3560078,93.108132 91.1071899,104.229072 87.4014167,116.285187 Z M58.4369167,119.858232 C67.1519306,121.962996 75.9668522,123.630149 84.8485833,124.853429 C81.6115933,137.460131 79.8566167,150.401466 79.61925,163.414938 L44.3919167,163.414938 C45.1339524,147.908505 49.9808157,132.877292 58.4369167,119.858232 L58.4369167,119.858232 Z M64.0416667,223.551635 C71.4705,221.864486 79.2924167,220.460001 87.4058333,219.377929 C91.1116066,231.434044 97.3604245,242.554984 105.730583,251.990251 C89.3713498,246.752191 74.8874586,236.871824 64.0416667,223.551635 Z M159.27825,251.990251 C167.648409,242.554984 173.897227,231.434044 177.603,219.377929 C185.716417,220.473251 193.538333,221.864486 200.967167,223.551635 C190.120186,236.872526 175.634671,246.752954 159.273833,251.990251 L159.27825,251.990251 Z M251.75,194.331278 L225.961083,194.331278 C237.233583,154.692058 222.274314,112.253718 188.636686,88.4447237 C154.999059,64.6357291 110.000941,64.6357291 76.3633138,88.4447237 C42.7256862,112.253718 27.766417,154.692058 39.0389167,194.331278 L13.25,194.331278 C10.8107424,194.331278 8.83333333,192.353889 8.83333333,189.914658 L8.83333333,44.1661995 L256.166667,44.1661995 L256.166667,189.914658 C256.166667,192.353889 254.189257,194.331278 251.75,194.331278 Z" id="Shape"></path>
                    <circle id="Oval" cx="22" cy="22" r="4"></circle>
                    <circle id="Oval" cx="40" cy="22" r="4"></circle>
                    <circle id="Oval" cx="57" cy="22" r="4"></circle>
                    <path d="M119.375,26 L145.625,26 C148.041246,26 150,24.209139 150,22 C150,19.790861 148.041246,18 145.625,18 L119.375,18 C116.958754,18 115,19.790861 115,22 C115,24.209139 116.958754,26 119.375,26 Z" id="Shape"></path>
                    <path d="M194.384615,26 L242.615385,26 C245.036941,26 247,24.209139 247,22 C247,19.790861 245.036941,18 242.615385,18 L194.384615,18 C191.963059,18 190,19.790861 190,22 C190,24.209139 191.963059,26 194.384615,26 Z" id="Shape"></path>
                    <path d="M22.5,66 L31.5,66 C33.9852814,66 36,64.2091388 36,62 C36,59.7908612 33.9852814,58 31.5,58 L22.5,58 C20.0147186,58 18,59.7908612 18,62 C18,64.2091388 20.0147186,66 22.5,66 Z" id="Shape"></path>
                    <path d="M31.5,93 L22.5,93 C20.0147186,93 18,94.7908612 18,97 C18,99.2091388 20.0147186,101 22.5,101 L31.5,101 C33.9852814,101 36,99.2091388 36,97 C36,94.7908612 33.9852814,93 31.5,93 Z" id="Shape"></path>
                    <path d="M88.5454545,58 L48.4545455,58 C45.9943682,58 44,59.7908612 44,62 C44,64.2091388 45.9943682,66 48.4545455,66 L88.5454545,66 C91.0056318,66 93,64.2091388 93,62 C93,59.7908612 91.0056318,58 88.5454545,58 Z" id="Shape"></path>
                    <path d="M57.6,75 L22.4,75 C19.9699471,75 18,76.7908612 18,79 C18,81.2091388 19.9699471,83 22.4,83 L57.6,83 C60.0300527,83 62,81.2091388 62,79 C62,76.7908612 60.0300527,75 57.6,75 Z" id="Shape"></path>
                </g>
            </g>
            <text id="实时开发环境" font-family="PingFangSC-Semibold, PingFang SC" font-size="48" font-weight="500" fill="#000000">
                <tspan x="206" y="161">实时开发环境 </tspan>
            </text>
            <text id="Cloud" font-family="PingFangSC-Semibold, PingFang SC" font-size="48" font-weight="500" fill="#000000">
                <tspan x="1907.52" y="161">Cloud</tspan>
            </text>
        </g>
    </g>
</svg>